<svg xmlns="http://www.w3.org/2000/svg" xmlns:xlink="http://www.w3.org/1999/xlink" viewBox="0 0 100 125" version="1.1" x="0px" y="0px"><g stroke="none" stroke-width="1" fill="none" fill-rule="evenodd"><g fill="#000000"><polygon points="39 33 67 50 39 67 51 50"/><path d="M50,88.5 C28.7370371,88.5 11.5,71.2629629 11.5,50 C11.5,28.7370371 28.7370371,11.5 50,11.5 C71.2629629,11.5 88.5,28.7370371 88.5,50 C88.5,71.2629629 71.2629629,88.5 50,88.5 Z M50,85.5 C69.6061086,85.5 85.5,69.6061086 85.5,50 C85.5,30.3938914 69.6061086,14.5 50,14.5 C30.3938914,14.5 14.5,30.3938914 14.5,50 C14.5,69.6061086 30.3938914,85.5 50,85.5 Z" fill-rule="nonzero"/></g></g></svg>