
<svg xmlns="http://www.w3.org/2000/svg" xmlns:xlink="http://www.w3.org/1999/xlink" xml:space="preserve" version="1.1"  fill="white" style="shape-rendering:geometricPrecision;text-rendering:geometricPrecision;image-rendering:optimizeQuality;" viewBox="0 0 816 1122.5" x="0px" y="0px"  clip-rule="evenodd"><defs><style type="text/css">
   
    .fil0 {fill:white}
   
  </style></defs><g><path class="fil0" d="M262 0c23,180 109,273 261,280 -152,7 -238,101 -261,280 -23,-179 -110,-273 -262,-280 152,-7 239,-100 262,-280z"/><path class="fil0" d="M644 379c15,117 72,179 172,183 -100,5 -157,66 -172,184 -15,-118 -72,-179 -171,-184 99,-4 156,-66 171,-183z"/><path class="fil0" d="M344 634c11,85 52,129 124,132 -72,3 -113,48 -124,132 -11,-84 -52,-129 -123,-132 71,-3 112,-47 123,-132z"/></g></svg>