<svg xmlns="http://www.w3.org/2000/svg" fill="#fafafa" viewBox="0 0 91.12 91.12"><title>magic</title><g id="Layer_2" data-name="Layer 2"><path d="M45.56,89.39a34.25,34.25,0,0,0-4.49-13.12,68.79,68.79,0,0,0-11.4-14.82A68.66,68.66,0,0,0,14.84,50,34,34,0,0,0,1.72,45.56a34.2,34.2,0,0,0,13.12-4.49,68.6,68.6,0,0,0,14.83-11.4,68.6,68.6,0,0,0,11.4-14.83A34.2,34.2,0,0,0,45.56,1.72,34,34,0,0,0,50,14.84,68.66,68.66,0,0,0,61.45,29.67a68.79,68.79,0,0,0,14.82,11.4,34.25,34.25,0,0,0,13.12,4.49A34.05,34.05,0,0,0,76.27,50,72.54,72.54,0,0,0,50,76.27,34.05,34.05,0,0,0,45.56,89.39Z"/><path d="M45.56,2.47A35.11,35.11,0,0,0,50,14.88,68.15,68.15,0,0,0,61.39,29.72,68.69,68.69,0,0,0,76.23,41.14a35.09,35.09,0,0,0,12.42,4.42A35.09,35.09,0,0,0,76.23,50,72.24,72.24,0,0,0,50,76.23a35.09,35.09,0,0,0-4.42,12.42,35.09,35.09,0,0,0-4.42-12.42A68.69,68.69,0,0,0,29.72,61.39,68.15,68.15,0,0,0,14.88,50,35.11,35.11,0,0,0,2.47,45.56a35.11,35.11,0,0,0,12.41-4.42A68.21,68.21,0,0,0,29.72,29.72,68.21,68.21,0,0,0,41.14,14.88,35.11,35.11,0,0,0,45.56,2.47m0-2.47C45.56,18.22,18.22,45.56,0,45.56c18.22,0,45.56,27.33,45.56,45.56,0-18.23,27.33-45.56,45.56-45.56C72.89,45.56,45.56,18.22,45.56,0Z"/></g></svg>