<svg id="Layer_1" data-name="Layer 1" fill="#fafafa" xmlns="http://www.w3.org/2000/svg" viewBox="0 0 98 91.12"><title>magic</title><path d="M84.49,37a10,10,0,0,0-1.33-3.89,21.34,21.34,0,0,0-7.78-7.78A10,10,0,0,0,71.49,24a10.17,10.17,0,0,0,3.89-1.33,20.22,20.22,0,0,0,4.4-3.38,20.22,20.22,0,0,0,3.38-4.4A10.06,10.06,0,0,0,84.49,11a10.23,10.23,0,0,0,1.33,3.89,20.22,20.22,0,0,0,3.38,4.4,20.71,20.71,0,0,0,4.4,3.38A10.23,10.23,0,0,0,97.49,24a10.06,10.06,0,0,0-3.89,1.33,20.71,20.71,0,0,0-4.4,3.38,20.22,20.22,0,0,0-3.38,4.4A10.17,10.17,0,0,0,84.49,37Z"/><path d="M84.49,11.2a10.51,10.51,0,0,0,1.31,3.68,20,20,0,0,0,3.39,4.4,20,20,0,0,0,4.4,3.39A10.51,10.51,0,0,0,97.27,24a10.31,10.31,0,0,0-3.68,1.31,21.39,21.39,0,0,0-7.79,7.79,10.51,10.51,0,0,0-1.31,3.68,10.31,10.31,0,0,0-1.31-3.68,21.27,21.27,0,0,0-7.78-7.79A10.42,10.42,0,0,0,71.71,24a10.62,10.62,0,0,0,3.69-1.31,20.45,20.45,0,0,0,4.4-3.39,20.22,20.22,0,0,0,3.38-4.4,10.31,10.31,0,0,0,1.31-3.68m0-.73C84.49,15.87,76.39,24,71,24c5.41,0,13.51,8.1,13.51,13.51C84.49,32.08,92.6,24,98,24c-5.4,0-13.51-8.11-13.51-13.51Z"/><path d="M84.49,80.1a10.06,10.06,0,0,0-1.33-3.89,20.42,20.42,0,0,0-3.38-4.39,19.62,19.62,0,0,0-4.4-3.38,10,10,0,0,0-3.89-1.34,9.84,9.84,0,0,0,3.89-1.33,19.92,19.92,0,0,0,4.4-3.38A20.42,20.42,0,0,0,83.16,58a10.06,10.06,0,0,0,1.33-3.89A10.23,10.23,0,0,0,85.82,58a21.42,21.42,0,0,0,7.78,7.77,9.89,9.89,0,0,0,3.89,1.33,10.09,10.09,0,0,0-3.89,1.34,20.08,20.08,0,0,0-4.4,3.38,20.42,20.42,0,0,0-3.38,4.39A10.23,10.23,0,0,0,84.49,80.1Z"/><path d="M84.49,54.33A10.57,10.57,0,0,0,85.8,58a21.47,21.47,0,0,0,7.79,7.78,10.12,10.12,0,0,0,3.68,1.31,10.51,10.51,0,0,0-3.68,1.31,20.6,20.6,0,0,0-4.4,3.39,20.21,20.21,0,0,0-3.39,4.4,10.57,10.57,0,0,0-1.31,3.68,10.37,10.37,0,0,0-1.31-3.68,20.47,20.47,0,0,0-3.38-4.4,21.11,21.11,0,0,0-4.4-3.39,10.62,10.62,0,0,0-3.69-1.31,10.22,10.22,0,0,0,3.69-1.31,20.71,20.71,0,0,0,4.4-3.38A20.47,20.47,0,0,0,83.18,58a10.37,10.37,0,0,0,1.31-3.68m0-.73c0,5.4-8.1,13.5-13.51,13.5,5.41,0,13.51,8.11,13.51,13.51,0-5.4,8.11-13.51,13.51-13.51-5.4,0-13.51-8.1-13.51-13.5Z"/><path d="M45.56,89.39a34.25,34.25,0,0,0-4.49-13.12,68.79,68.79,0,0,0-11.4-14.82A68.66,68.66,0,0,0,14.84,50,34,34,0,0,0,1.72,45.56a34.2,34.2,0,0,0,13.12-4.49,68.6,68.6,0,0,0,14.83-11.4,68.6,68.6,0,0,0,11.4-14.83A34.2,34.2,0,0,0,45.56,1.72,34,34,0,0,0,50,14.84,68.66,68.66,0,0,0,61.45,29.67a68.79,68.79,0,0,0,14.82,11.4,34.25,34.25,0,0,0,13.12,4.49A34.05,34.05,0,0,0,76.27,50,72.54,72.54,0,0,0,50,76.27,34.05,34.05,0,0,0,45.56,89.39Z"/><path d="M45.56,2.47A35.11,35.11,0,0,0,50,14.88,68.15,68.15,0,0,0,61.39,29.72,68.69,68.69,0,0,0,76.23,41.14a35.09,35.09,0,0,0,12.42,4.42A35.09,35.09,0,0,0,76.23,50,72.24,72.24,0,0,0,50,76.23a35.09,35.09,0,0,0-4.42,12.42,35.09,35.09,0,0,0-4.42-12.42A68.69,68.69,0,0,0,29.72,61.39,68.15,68.15,0,0,0,14.88,50,35.11,35.11,0,0,0,2.47,45.56a35.11,35.11,0,0,0,12.41-4.42A68.21,68.21,0,0,0,29.72,29.72,68.21,68.21,0,0,0,41.14,14.88,35.11,35.11,0,0,0,45.56,2.47m0-2.47C45.56,18.22,18.22,45.56,0,45.56c18.22,0,45.56,27.33,45.56,45.56,0-18.23,27.33-45.56,45.56-45.56C72.89,45.56,45.56,18.22,45.56,0Z"/></svg>